<svg width="20" height="20" viewBox="0 0 20 20" fill="none" xmlns="http://www.w3.org/2000/svg">
<g id="EmailRounded">
<path id="Vector" d="M16.6667 3.33337H3.33333C2.41667 3.33337 1.675 4.08337 1.675 5.00004L1.66667 15C1.66667 15.9167 2.41667 16.6667 3.33333 16.6667H16.6667C17.5833 16.6667 18.3333 15.9167 18.3333 15V5.00004C18.3333 4.08337 17.5833 3.33337 16.6667 3.33337ZM16.3333 6.87504L10.4417 10.5584C10.175 10.725 9.825 10.725 9.55833 10.5584L3.66667 6.87504C3.45833 6.74171 3.33333 6.51671 3.33333 6.27504C3.33333 5.71671 3.94167 5.38337 4.41667 5.67504L10 9.16671L15.5833 5.67504C16.0583 5.38337 16.6667 5.71671 16.6667 6.27504C16.6667 6.51671 16.5417 6.74171 16.3333 6.87504Z" fill="#6589DE"/>
</g>
</svg>
