<svg width="20" height="20" viewBox="0 0 20 20" fill="none" xmlns="http://www.w3.org/2000/svg">
<g id="PasswordRounded">
<path id="Vector" d="M2.5 14.1667H17.5C17.9583 14.1667 18.3333 14.5417 18.3333 15C18.3333 15.4583 17.9583 15.8333 17.5 15.8333H2.5C2.04167 15.8333 1.66667 15.4583 1.66667 15C1.66667 14.5417 2.04167 14.1667 2.5 14.1667ZM2.08333 10.475C2.38333 10.65 2.76667 10.5417 2.94167 10.2417L3.33333 9.55832L3.73333 10.25C3.90833 10.55 4.29167 10.65 4.59167 10.4833C4.89167 10.3083 4.99166 9.93332 4.825 9.63332L4.41667 8.93332H5.20833C5.55 8.93332 5.83333 8.64999 5.83333 8.30832C5.83333 7.96666 5.55 7.68332 5.20833 7.68332H4.41667L4.80833 6.99999C4.98333 6.69999 4.88333 6.31666 4.58333 6.14166C4.28333 5.97499 3.9 6.07499 3.725 6.37499L3.33333 7.05832L2.94167 6.37499C2.76667 6.07499 2.38333 5.97499 2.08333 6.14166C1.78333 6.31666 1.68333 6.69999 1.85833 6.99999L2.25 7.68332H1.45833C1.11667 7.68332 0.833332 7.96666 0.833332 8.30832C0.833332 8.64999 1.11667 8.93332 1.45833 8.93332H2.25L1.85 9.62499C1.68333 9.92499 1.78333 10.3083 2.08333 10.475ZM8.75 10.475C9.05 10.65 9.43333 10.5417 9.60833 10.2417L10 9.55832L10.4 10.25C10.575 10.55 10.9583 10.65 11.2583 10.4833C11.5583 10.3083 11.6583 9.93332 11.4917 9.63332L11.0917 8.94166H11.8833C12.225 8.94166 12.5083 8.65832 12.5083 8.31666C12.5083 7.97499 12.225 7.69166 11.8833 7.69166H11.0833L11.475 7.00832C11.65 6.70832 11.5417 6.32499 11.25 6.14999C10.95 5.97499 10.5667 6.08332 10.4 6.37499L10 7.05832L9.60833 6.37499C9.43333 6.07499 9.05 5.97499 8.75833 6.14999C8.45833 6.32499 8.35833 6.70832 8.53333 7.00832L8.925 7.69166H8.125C7.78333 7.68332 7.5 7.96666 7.5 8.30832C7.5 8.64999 7.78333 8.93332 8.125 8.93332H8.91666L8.51666 9.62499C8.35 9.92499 8.45 10.3083 8.75 10.475ZM19.1667 8.30832C19.1667 7.96666 18.8833 7.68332 18.5417 7.68332H17.75L18.1417 6.99999C18.3167 6.69999 18.2083 6.31666 17.9167 6.14166C17.6167 5.96666 17.2333 6.07499 17.0667 6.36666L16.6667 7.05832L16.275 6.37499C16.1 6.07499 15.7167 5.97499 15.425 6.14999C15.125 6.32499 15.025 6.70832 15.2 7.00832L15.5917 7.69166H14.8C14.45 7.68332 14.1667 7.96666 14.1667 8.30832C14.1667 8.64999 14.45 8.93332 14.7917 8.93332H15.5833L15.1833 9.62499C15.0083 9.92499 15.1167 10.3083 15.4167 10.475C15.7167 10.65 16.1 10.5417 16.275 10.2417L16.6667 9.55832L17.0667 10.25C17.2417 10.55 17.625 10.65 17.925 10.4833C18.225 10.3083 18.325 9.93332 18.1583 9.63332L17.7583 8.94166H18.55C18.8833 8.93332 19.1667 8.64999 19.1667 8.30832Z" fill="#6589DE"/>
</g>
</svg>
