<svg width="45" height="45" viewBox="0 0 45 45" fill="none" xmlns="http://www.w3.org/2000/svg">
<path d="M22.5 3.75C14.625 3.75 7.5 9.7875 7.5 19.125C7.5 25.0875 12.0938 32.1 21.2625 40.1812C21.975 40.8 23.0437 40.8 23.7563 40.1812C32.9062 32.1 37.5 25.0875 37.5 19.125C37.5 9.7875 30.375 3.75 22.5 3.75ZM22.5 22.5C20.4375 22.5 18.75 20.8125 18.75 18.75C18.75 16.6875 20.4375 15 22.5 15C24.5625 15 26.25 16.6875 26.25 18.75C26.25 20.8125 24.5625 22.5 22.5 22.5Z" fill="#6589DE"/>
<rect x="18" y="13.5" width="10.5" height="12" fill="#6589DE"/>
<path d="M26.9193 11.3303C25.3524 11.3303 23.6649 11.6518 22.4997 12.5357C21.3345 11.6518 19.647 11.3303 18.08 11.3303C16.9149 11.3303 15.6774 11.5071 14.6408 11.9651C14.0542 12.2303 13.6604 12.8009 13.6604 13.4518V22.516C13.6604 23.5607 14.6408 24.3321 15.6533 24.075C16.4408 23.8741 17.2765 23.7857 18.08 23.7857C19.3336 23.7857 20.6675 23.9946 21.7443 24.525C22.2265 24.766 22.7729 24.766 23.247 24.525C24.3238 23.9866 25.6577 23.7857 26.9113 23.7857C27.7149 23.7857 28.5506 23.8741 29.3381 24.075C30.3506 24.3401 31.3309 23.5687 31.3309 22.516V13.4518C31.3309 12.8009 30.9372 12.2303 30.3506 11.9651C29.322 11.5071 28.0845 11.3303 26.9193 11.3303ZM29.7318 21.5598C29.7318 22.066 29.2658 22.4357 28.7675 22.3473C28.1649 22.2348 27.5381 22.1866 26.9193 22.1866C25.5533 22.1866 23.5845 22.7089 22.4997 23.3919V14.1428C23.5845 13.4598 25.5533 12.9375 26.9193 12.9375C27.6586 12.9375 28.3899 13.0098 29.089 13.1625C29.4586 13.2428 29.7318 13.5723 29.7318 13.95V21.5598Z" fill="#E5EAF6"/>
<path d="M24.0908 16.5616C23.8336 16.5616 23.6006 16.4009 23.5202 16.1437C23.4158 15.8303 23.5925 15.4848 23.9059 15.3884C25.1434 14.9866 26.7425 14.858 28.2131 15.0268C28.5425 15.0669 28.7836 15.3643 28.7434 15.6937C28.7033 16.0232 28.4059 16.2643 28.0765 16.2241C26.7747 16.0714 25.3524 16.1919 24.2756 16.5375C24.2113 16.5455 24.147 16.5616 24.0908 16.5616Z" fill="#E5EAF6"/>
<path d="M24.0908 18.6991C23.8336 18.6991 23.6006 18.5384 23.5202 18.2812C23.4158 17.9678 23.5925 17.6223 23.9059 17.5259C25.1354 17.1241 26.7425 16.9955 28.2131 17.1642C28.5425 17.2044 28.7836 17.5017 28.7434 17.8312C28.7033 18.1607 28.4059 18.4017 28.0765 18.3616C26.7747 18.2089 25.3524 18.3294 24.2756 18.675C24.2113 18.691 24.147 18.6991 24.0908 18.6991Z" fill="#E5EAF6"/>
<path d="M24.0908 20.8366C23.8336 20.8366 23.6006 20.6759 23.5202 20.4187C23.4158 20.1053 23.5925 19.7598 23.9059 19.6634C25.1354 19.2616 26.7425 19.133 28.2131 19.3018C28.5425 19.3419 28.7836 19.6393 28.7434 19.9687C28.7033 20.2982 28.4059 20.5312 28.0765 20.4991C26.7747 20.3464 25.3524 20.4669 24.2756 20.8125C24.2113 20.8285 24.147 20.8366 24.0908 20.8366Z" fill="#E5EAF6"/>
</svg>
