<svg width="30" height="31" viewBox="0 0 30 31" fill="none" xmlns="http://www.w3.org/2000/svg">
<g id="CommentRounded">
<path id="Vector" d="M27.4875 5.5C27.4875 4.125 26.375 3 25 3H5C3.625 3 2.5 4.125 2.5 5.5V20.5C2.5 21.875 3.625 23 5 23H22.5L27.5 28L27.4875 5.5ZM21.25 18H8.75C8.0625 18 7.5 17.4375 7.5 16.75C7.5 16.0625 8.0625 15.5 8.75 15.5H21.25C21.9375 15.5 22.5 16.0625 22.5 16.75C22.5 17.4375 21.9375 18 21.25 18ZM21.25 14.25H8.75C8.0625 14.25 7.5 13.6875 7.5 13C7.5 12.3125 8.0625 11.75 8.75 11.75H21.25C21.9375 11.75 22.5 12.3125 22.5 13C22.5 13.6875 21.9375 14.25 21.25 14.25ZM21.25 10.5H8.75C8.0625 10.5 7.5 9.9375 7.5 9.25C7.5 8.5625 8.0625 8 8.75 8H21.25C21.9375 8 22.5 8.5625 22.5 9.25C22.5 9.9375 21.9375 10.5 21.25 10.5Z" fill="#6589DE"/>
</g>
</svg>
