<svg width="30" height="31" viewBox="0 0 30 31" fill="none" xmlns="http://www.w3.org/2000/svg">
<g id="MapRounded">
<path id="Vector" d="M18.3125 6.72499L12.0625 4.53749C11.5375 4.34999 10.9625 4.34999 10.4375 4.52499L5.45 6.19999C4.4375 6.54999 3.75 7.49999 3.75 8.57499V23.3875C3.75 25.15 5.5125 26.35 7.15 25.7125L10.8125 24.2875C11.0875 24.175 11.4 24.175 11.675 24.275L17.925 26.4625C18.45 26.65 19.025 26.65 19.55 26.475L24.5375 24.8C25.55 24.4625 26.2375 23.5 26.2375 22.425V7.61249C26.2375 5.84999 24.475 4.64999 22.8375 5.28749L19.175 6.71249C18.9 6.81249 18.6 6.82499 18.3125 6.72499ZM18.75 24.1125L11.25 21.475V6.88749L18.75 9.52499V24.1125Z" fill="#6589DE"/>
</g>
</svg>
