<svg width="30" height="31" viewBox="0 0 30 31" fill="none" xmlns="http://www.w3.org/2000/svg">
<g id="Person_2Rounded">
<g id="Vector">
<path d="M22.9875 18.7C20.8875 17.625 18.1625 16.75 15 16.75C11.8375 16.75 9.1125 17.625 7.0125 18.7C5.7625 19.3375 5 20.625 5 22.025V23C5 24.375 6.125 25.5 7.5 25.5H22.5C23.875 25.5 25 24.375 25 23V22.025C25 20.625 24.2375 19.3375 22.9875 18.7Z" fill="#6589DE"/>
<path d="M12.225 15.5H17.775C19.2875 15.5 20.45 14.175 20.25 12.675L19.85 9.6125C19.4625 7.2375 17.4 5.5 15 5.5C12.6 5.5 10.5375 7.2375 10.15 9.6125L9.75001 12.675C9.55001 14.175 10.7125 15.5 12.225 15.5Z" fill="#6589DE"/>
</g>
</g>
</svg>
