<svg width="30" height="31" viewBox="0 0 30 31" fill="none" xmlns="http://www.w3.org/2000/svg">
<g id="RateReviewRounded">
<path id="Vector" d="M25 3H5C3.625 3 2.5 4.125 2.5 5.5V28L7.5 23H25C26.375 23 27.5 21.875 27.5 20.5V5.5C27.5 4.125 26.375 3 25 3ZM7.5 18V14.9125L16.1 6.3125C16.35 6.0625 16.7375 6.0625 16.9875 6.3125L19.2 8.525C19.45 8.775 19.45 9.1625 19.2 9.4125L10.5875 18H7.5ZM21.25 18H13.125L15.625 15.5H21.25C21.9375 15.5 22.5 16.0625 22.5 16.75C22.5 17.4375 21.9375 18 21.25 18Z" fill="#6589DE"/>
</g>
</svg>
